<?xml version="1.0" encoding="UTF-8"?>
<svg width="600" height="350" version="1.1" xmlns="http://www.w3.org/2000/svg" xmlns:xlink="http://www.w3.org/1999/xlink">
 <defs>
  <clipPath id="f">
   <path d="m-8.2813-225.06-38.206 188.5h0.11442c-0.82987 4.0223-1.269 8.2441-1.269 12.594 0 27.481 17.632 49.781 39.36 49.781 21.729 1e-6 39.36-22.3 39.36-49.781 0-4.3497-0.43915-8.5714-1.269-12.594z" fill="#0b181d"/>
  </clipPath>
  <filter id="a" x="-.4" y="-.1" width="1.9" height="1.1">
   <feGaussianBlur stdDeviation="9.9934576"/>
  </filter>
  <clipPath id="g">
   <path d="m-8.2812-225.06-114.78 188.5h0.34375c-2.4932 4.0223-3.8125 8.2441-3.8125 12.594 0 27.481 52.971 49.781 118.25 49.781 65.279 1e-6 118.25-22.3 118.25-49.781 0-4.3497-1.3193-8.5714-3.8125-12.594z" fill="#0b181d"/>
  </clipPath>
  <clipPath id="h">
   <path d="m42.836-413.52-51.218 188.47-51.374-188.47" fill="#0a151a"/>
  </clipPath>
  <filter id="c" x="-.3" y="-.1" width="1.6" height="1.2">
   <feGaussianBlur stdDeviation="9.0404419"/>
  </filter>
  <clipPath id="i">
   <ellipse transform="translate(-2.0364 82.182)" cx="-6.25" cy="-508.31" rx="118.26" ry="49.785" fill="#17313b"/>
  </clipPath>
  <filter id="d" x="-.3" y="0" width="1.6" height="1.1">
   <feGaussianBlur stdDeviation="4.1034835"/>
  </filter>
  <filter id="e" x="-.5" y="-.11" width="2.1" height="1.2">
   <feGaussianBlur stdDeviation="8.0711867"/>
  </filter>
 </defs>
 <use transform="translate(194.79)" xlink:href="#b"/>
 <use transform="translate(399.34)" xlink:href="#b"/>
 <path d="m352.3 177.43-21.56 5.2224 21.704 35.775c1.673 1.5751 2.6192 3.3066 2.6192 5.1426 0 6.9848-13.465 12.665-30.057 12.665s-30.057-5.6799-30.057-12.665c0-1.7613 0.865-3.4268 2.4116-4.9509l0.016-0.0317 19.9-32.676-95.872 23.19 76.005 73.705 130.9-31.654zm-34.8 33.89c-0.9595 0.10354-1.9068 0.22594-2.8268 0.36735 0.9206-0.14197 1.8667-0.26324 2.8268-0.36735zm15.012 0c0.9602 0.10411 1.9063 0.22538 2.8269 0.36735-0.92-0.14141-1.8673-0.26381-2.8269-0.36735zm-20.762 0.89436c-1.2294 0.25457-2.4192 0.54204-3.5456 0.86248 1.1304-0.32162 2.3129-0.60689 3.5456-0.86248zm-3.5456 0.86248c-0.7995 0.22742-1.5757 0.4758-2.3157 0.7346 0.7423-0.25793 1.5162-0.50718 2.3157-0.7346zm30.057-0.86248c1.2326 0.25559 2.4151 0.54086 3.5455 0.86248-1.1263-0.32049-2.3161-0.60791-3.5455-0.86248zm3.5455 0.86248c0.7996 0.22742 1.5734 0.47667 2.3158 0.7346-0.7441-0.2588-1.5162-0.50718-2.3158-0.7346zm4.4559 1.5491c0.68 0.2863 1.3197 0.58185 1.9324 0.89437-0.6095-0.30915-1.257-0.61001-1.9324-0.89437z" fill="#00f" fill-opacity=".3"/>
 <ellipse transform="scale(1,-1)" cx="325" cy="-223.57" rx="30.058" ry="12.654" fill="none" stroke="#0ff"/>
 <path d="m391.4 44.81-15.508 11.898c6.0676 3.9662 9.5984 8.6859 9.5984 13.751 0 2.2235-0.6736 4.3801-1.9484 6.4362l-25.33 41.716c0.021-0.0363 0.028-0.0757 0.048-0.11182-3.4734 6.2117-14.13 13.972-26.735 18.973-13.786 5.4696-25.242 5.7951-27.518 1.1659l-11.116-18.239-41.508 31.862 32.421 48.535 140.03-107.44zm-37.1 65.065c0.2105 0.0409 0.4239 0.0788 0.6229 0.12776-0.1999-0.0496-0.4114-0.0864-0.6229-0.12776zm2.1082 0.60694c0.1983 0.0843 0.3945 0.19185 0.5749 0.28742-0.1833-0.0979-0.373-0.20136-0.5749-0.28742zm0.5909 0.28742c0.1848 0.0985 0.3616 0.19303 0.527 0.30347-0.1627-0.10911-0.3454-0.20591-0.527-0.30347zm1.5013 1.1659c0.078 0.0902 0.1391 0.19216 0.2076 0.28747-0.068-0.0953-0.1303-0.19722-0.2076-0.28747zm0.6068 0.94225c0.053 0.11693 0.087 0.24429 0.1278 0.36735-0.042-0.12449-0.074-0.24904-0.1278-0.36735zm0.3035 1.118c0.027 0.20182 0.048 0.40727 0.048 0.62284 0-0.21516-0.021-0.42138-0.048-0.62284z" fill="#00f" fill-opacity=".3"/>
 <ellipse transform="matrix(.92951 -.36879 0 1 0 0)" cx="356.6" cy="257.18" rx="30.057" ry="11.761" fill="none" stroke="#0ff"/>
 <g id="b">
  <path d="m130.3 172.95-58.661 96.336h0.1756c-1.2741 2.0557-1.9484 4.2133-1.9484 6.4362 0 14.045 27.071 25.441 60.433 25.441s60.433-11.397 60.433-25.441c0-2.223-0.6742-4.3805-1.9484-6.4362z" fill="#0b181d"/>
  <path transform="matrix(1.5354 0 0 .51106 143 287.97)" d="m-8.2812-225.06-26.88 258.74h0.0805c-0.58386 5.5211-0.89282 11.316-0.89282 17.286 0 37.721 12.405 68.33 27.692 68.33s27.692-30.609 27.692-68.33c0-5.9704-0.30896-11.765-0.89282-17.286z" clip-path="url(#f)" fill="#2e6074" filter="url(#a)"/>
  <path transform="matrix(.51106 0 0 .51106 134.5 287.97)" d="m-8.2812-225.06-26.88 258.74h0.0805c-0.58386 5.5211-0.89282 11.316-0.89282 17.286 0 37.721 12.405 68.33 27.692 68.33s27.692-30.609 27.692-68.33c0-5.9704-0.30896-11.765-0.89282-17.286z" clip-path="url(#g)" fill="#fff" fill-opacity=".6" filter="url(#a)"/>
  <g transform="translate(-1015.4,-464.25)">
   <path d="m1204.1 540.89-58.48 96.32-58.658-96.32" fill="#0a151a"/>
   <path transform="matrix(1.1418 0 0 .51106 1155.2 752.22)" d="m26.454-413.52-34.861 188.47-34.967-188.47" clip-path="url(#h)" fill="#1d3b47" filter="url(#c)"/>
   <ellipse cx="1145.6" cy="534.44" rx="60.438" ry="25.443" fill="#17313b"/>
  </g>
  <g transform="matrix(.51106 0 0 .51106 134.5 287.97)" clip-path="url(#i)">
   <path transform="matrix(5.4193,0,0,1,37.389,0)" d="m9.2178-525.72-17.651 268.76-17.705-268.76" fill="#2e6074" filter="url(#d)"/>
   <path transform="matrix(1.6187,0,0,1,5.2344,0)" d="m9.2178-525.72-17.651 268.76-17.705-268.76" fill="#fff" fill-opacity=".8" filter="url(#e)"/>
  </g>
 </g>
 <path d="m186.5 265.33c-67.398-110.67-109.05-80.093-42.549 35.084" fill="none" stroke="#0ff"/>
 <path d="m581.3 4.49-52.531 58.819v253.9l15.67-17.551c0-30.854-4.0802-105.24 36.86-42.626zm-0.4152 81.738c-23.509 46.507-35.263 44.974-35.774 8.6881z" fill="#00f" fill-opacity=".3"/>
 <path d="m544.5 299.67c0-30.983-4.1205-105.87 37.369-41.853" fill="none" stroke="#0ff"/>
 <path d="m75.8 42.01-65.738 50.171 122.09 216.51 11.371-9.1193c-32.524-56.58-38.807-92.557-28.731-101.16l15.508-25.473 49.941 82.297c0.025 0.0391 0.055 0.0726 0.08 0.1118 2.0229 3.1369 4.0586 6.4031 6.1328 9.806l8.7864-10.292z" fill="#00f" fill-opacity=".3"/>
 <path d="m545.11 94.916c0.5111 36.286 12.266 37.819 35.774-8.6881" fill="none" stroke="#0ff"/>
 <g font-family="DejaVu Sans" font-size="25">
  <text x="124" y="340">1</text>
  <text x="318" y="340">2</text>
  <text x="522" y="340">3</text>
 </g>
</svg>
