<?xml version="1.0" encoding="UTF-8" standalone="no"?>
<!-- Created with Inkscape (http://www.inkscape.org/) -->
<svg
   xmlns:svg="http://www.w3.org/2000/svg"
   xmlns="http://www.w3.org/2000/svg"
   version="1.0"
   width="550"
   height="480"
   id="svg2486">
  <defs
     id="defs2488" />
  <g
     transform="translate(-42.899856,-41.499769)"
     id="layer1">
    <g
       transform="matrix(4.7330999,0,0,4.7330999,-56.330303,-42.024268)"
       id="g2421"
       style="fill-rule:evenodd">
      <path
         d="M 72.4569,52.6984 C 71.9617,61.5066 67.1658,70.5102 62.8396,80.0578 L 53.6976,99.6331 L 45.8793,116.5258 L 45.8793,107.1193 L 69.9084,53.0305 C 70.7477,51.106 72.4059,50.5245 72.4569,52.6984 L 72.4569,52.6984 z"
         id="path10"
         style="fill:#008000;stroke:#141516;stroke-width:0.30000001" />
      <path
         d="M 85.2056,82.3193 C 85.9139,91.9517 85.9055,101.6578 85.0088,111.2926 L 79.393,95.241 L 79.4287,82.5006 C 79.1953,77.9781 84.6002,78.4655 85.2056,82.3193 z"
         id="path12"
         style="fill:#0000ff;stroke:#141516;stroke-width:0.30000001;stroke-linejoin:round" />
      <path
         d="M 61.8441,29.5862 L 58.1394,21.3632 L 54.4915,29.4852 C 54.1392,30.2699 53.7137,30.7599 54.5695,31.3731 C 55.5572,32.0803 56.7579,32.4428 57.9931,32.4428 C 59.2811,32.4428 60.4929,32.0458 61.4848,31.2869 C 62.1781,30.7568 62.2013,30.3789 61.8441,29.5862 L 61.8441,29.5862 z"
         id="path14"
         style="fill:#cccccc;stroke:#141516;stroke-width:0.30000001" />
      <path
         d="M 71.1471,49.444 C 70.224,47.5674 69.3072,45.7912 68.0975,43.5342 C 67.5012,50.1548 46.2898,55.8585 45.6719,49.1482 L 36.5816,69.3606 L 23.0989,99.7321 C 22.1306,102.7534 23.4886,106.3745 25.9171,108.2853 C 30.7299,112.072 36.3199,114.4392 42.1428,115.7828 L 57.9175,82.1775 C 61.2926,73.5762 69.5991,58.7254 71.1471,49.444 L 71.1471,49.444 z M 72.4627,52.1698 C 77.0956,61.5088 80.3209,70.5679 80.0828,88.8124 L 79.2378,113.7052 C 72.786,115.9266 65.1712,116.999 57.7253,117.202 C 53.7332,117.3108 49.7523,117.12 45.8793,116.5258 L 58.3536,89.5728 C 63.5375,78.4598 72.6221,60.5009 72.4627,52.1698 L 72.4627,52.1698 z M 85.0088,111.2926 C 86.7519,110.3371 88.625,109.0295 90.0048,107.8173 C 92.2108,105.9402 93.5348,101.9109 92.4127,98.9027 L 85.1494,82.0277 C 86.1109,91.7929 85.7696,101.1547 85.0088,111.2926 L 85.0088,111.2926 z"
         id="path16"
         style="fill:#cccccc;stroke:#141516;stroke-width:0.30000001;stroke-linejoin:round" />
      <ellipse
         cx="58.1432"
         cy="36.1931"
         rx="6.5553398"
         ry="2.651"
         id="ellipse18"
         style="fill:#ff0000;stroke:#141516;stroke-width:0.30000001" />
      <path
         d="M 68.0975,43.5341 C 67.9616,41.65 66.2616,42.1407 64.2685,43.8728 C 62.2426,45.6334 54.3835,46.5354 49.6053,47.3565 C 47.7087,47.6823 46.2023,47.8745 45.9492,49.1618 C 46.0351,55.8398 67.498,50.1902 68.0975,43.5341 L 68.0975,43.5341 z"
         id="path20"
         style="fill:#ffff00;stroke:#141516;stroke-width:0.30000001;stroke-linejoin:round" />
      <path
         d="M 66.8664,40.8641 C 66.2416,45.41 47.4864,51.1798 47.0361,45.9271 L 51.4532,36.1867 C 51.8053,37.5379 54.7233,38.7293 58.1613,38.7293 C 61.4993,38.7293 64.3806,37.6793 64.8523,36.3734 L 66.8664,40.8641 L 66.8664,40.8641 z"
         id="path22"
         style="fill:#cccccc;stroke:#141516;stroke-width:0.30000001" />
      <path
         d="M 135.349,19.476 C 132.7948,37.2329 121.7455,49.9924 108.9287,49.9924 C 96.1416,49.9924 85.1055,37.2795 82.5249,19.5783 L 135.349,19.476 L 135.349,19.476 z"
         id="path24"
         style="fill:#0000ff;stroke:#141516;stroke-width:0.30000001" />
      <path
         d="M 121.745,19.476 C 120.5065,37.2329 115.1485,49.9924 108.9334,49.9924 C 102.7328,49.9924 97.3812,37.2795 96.1298,19.5783 L 121.745,19.476 L 121.745,19.476 z"
         id="path26"
         style="fill:#008000;stroke:#141516;stroke-width:0.30000001" />
      <ellipse
         cx="108.937"
         cy="39.633598"
         rx="5.1124001"
         ry="9.4754"
         id="ellipse28"
         style="fill:#ffff00;stroke:#141516;stroke-width:0.30000001" />
      <circle
         cx="108.937"
         cy="45.818401"
         r="3.2256999"
         id="circle30"
         style="fill:#ff0000;stroke:#141516;stroke-width:0.30000001" />
      <path
         d="M 84.719,80.9386 L 92.952,79.475 M 67.3427,69.9691 L 89.438,69.937 M 68.1146,43.2058 L 80.904,61.956 M 64.6986,36.1931 L 81.657,56.2575"
         id="path32"
         style="fill:none;stroke:#1f1a17;stroke-width:0.40000001" />
      <path
         d="M 82.5238,57.5405 C 82.5238,57.0374 82.6586,56.6437 82.9288,56.3594 C 83.199,56.0751 83.5476,55.9325 83.9751,55.9325 C 84.2545,55.9325 84.5071,55.9996 84.7315,56.1329 C 84.9558,56.267 85.1273,56.4532 85.2451,56.6924 C 85.3629,56.9309 85.4215,57.2025 85.4215,57.5052 C 85.4215,57.8128 85.3601,58.088 85.2359,58.33 C 85.1118,58.5727 84.9361,58.7562 84.7089,58.881 C 84.481,59.0059 84.2362,59.068 83.973,59.068 C 83.6873,59.068 83.4326,58.9996 83.2082,58.8613 C 82.9831,58.7237 82.8131,58.5353 82.6974,58.2968 C 82.5817,58.0591 82.5238,57.8065 82.5238,57.5405 L 82.5238,57.5405 z M 82.9373,57.5468 C 82.9373,57.9123 83.0353,58.1995 83.2315,58.4097 C 83.4283,58.62 83.6746,58.7251 83.9709,58.7251 C 84.2729,58.7251 84.5212,58.6193 84.716,58.4069 C 84.9107,58.1945 85.0088,57.8933 85.0088,57.5031 C 85.0088,57.2569 84.9664,57.0417 84.8832,56.8575 C 84.7999,56.6734 84.6779,56.5308 84.5177,56.4292 C 84.3568,56.3284 84.1769,56.2776 83.9772,56.2776 C 83.6929,56.2776 83.4488,56.3749 83.2442,56.5704 C 83.0396,56.7651 82.9373,57.0911 82.9373,57.5468 z"
         id="path34"
         style="fill:#1f1a17;fill-rule:nonzero" />
      <polygon
         points="85.8928,59.0165 85.8928,55.9862 86.2653,55.9862 86.2653,57.7141 87.1459,56.8215 87.6271,56.8215 86.7882,57.6357 87.7124,59.0165 87.2531,59.0165 86.5278,57.894 86.2653,58.1466 86.2653,59.0165 85.8928,59.0165 "
         id="polygon36"
         style="fill:#1f1a17;fill-rule:nonzero" />
      <path
         d="M 88.0039,59.0165 L 88.0039,56.8215 L 88.3383,56.8215 L 88.3383,57.1538 C 88.4237,56.9986 88.5027,56.8956 88.5754,56.8462 C 88.6473,56.7968 88.7271,56.7714 88.8138,56.7714 C 88.9394,56.7714 89.0664,56.8117 89.1962,56.8914 L 89.0678,57.2371 C 88.9775,57.1828 88.8865,57.156 88.7955,57.156 C 88.7136,57.156 88.641,57.1807 88.5761,57.2293 C 88.5112,57.2787 88.4653,57.3465 88.4378,57.4332 C 88.3962,57.5652 88.3757,57.7098 88.3757,57.8672 L 88.3757,59.0165 L 88.0039,59.0165 L 88.0039,59.0165 z"
         id="path38"
         style="fill:#1f1a17;fill-rule:nonzero" />
      <path
         d="M 90.8501,58.7456 C 90.7118,58.8627 90.5791,58.9452 90.4521,58.9939 C 90.3244,59.0419 90.1876,59.0659 90.0415,59.0659 C 89.8002,59.0659 89.6154,59.0073 89.4855,58.8895 C 89.3564,58.7717 89.2915,58.6207 89.2915,58.4379 C 89.2915,58.33 89.3155,58.2319 89.3649,58.143 C 89.4136,58.0541 89.4778,57.9829 89.5568,57.9292 C 89.6365,57.8756 89.7254,57.8347 89.8249,57.8072 C 89.8976,57.7881 90.0076,57.7691 90.1551,57.7514 C 90.4557,57.7155 90.6772,57.6731 90.819,57.623 C 90.8204,57.5722 90.8211,57.5398 90.8211,57.5264 C 90.8211,57.3747 90.7859,57.2674 90.7153,57.2061 C 90.6208,57.1214 90.4789,57.0798 90.292,57.0798 C 90.117,57.0798 89.9879,57.1101 89.9039,57.1715 C 89.8207,57.2329 89.7593,57.3415 89.7191,57.4975 L 89.3557,57.4474 C 89.3889,57.2921 89.4432,57.1658 89.5187,57.0706 C 89.5942,56.9746 89.7043,56.9006 89.8475,56.8491 C 89.9907,56.7975 90.1565,56.7714 90.3456,56.7714 C 90.5333,56.7714 90.685,56.794 90.8021,56.8378 C 90.9192,56.8822 91.0053,56.9372 91.061,57.0043 C 91.1161,57.0713 91.1542,57.1553 91.1767,57.2576 C 91.1887,57.3211 91.1951,57.4354 91.1951,57.6005 L 91.1951,58.0965 C 91.1951,58.4429 91.2028,58.6616 91.2191,58.7526 C 91.2346,58.8443 91.2663,58.9325 91.3129,59.0165 L 90.9241,59.0165 C 90.886,58.9396 90.8606,58.8493 90.8501,58.7456 L 90.8501,58.7456 z M 90.819,57.9144 C 90.6836,57.9702 90.4811,58.0167 90.2115,58.0555 C 90.0584,58.0774 89.9498,58.1021 89.887,58.1296 C 89.8235,58.1571 89.7741,58.1974 89.7402,58.251 C 89.7057,58.3039 89.688,58.3625 89.688,58.4274 C 89.688,58.5268 89.7261,58.6094 89.8009,58.6757 C 89.8757,58.7413 89.9858,58.7745 90.1304,58.7745 C 90.2736,58.7745 90.4013,58.7435 90.5128,58.6807 C 90.6243,58.6179 90.7068,58.5318 90.759,58.4231 C 90.7993,58.3392 90.819,58.215 90.819,58.0513 L 90.819,57.9144 L 90.819,57.9144 z M 90.939,58.9156 L 91.1958,58.9156 C 91.1415,59.0384 91.1146,59.1513 91.1146,59.2543 C 91.1146,59.3481 91.1429,59.4236 91.1993,59.4815 C 91.2558,59.5393 91.327,59.5682 91.4124,59.5682 C 91.5189,59.5682 91.6346,59.5372 91.7595,59.4737 L 91.7595,59.7192 C 91.6883,59.7566 91.6099,59.787 91.526,59.8102 C 91.442,59.8335 91.3693,59.8455 91.3073,59.8455 C 91.1704,59.8455 91.061,59.8039 90.9785,59.7213 C 90.8959,59.6388 90.8543,59.528 90.8543,59.389 C 90.8543,59.2705 90.8825,59.1125 90.939,58.9156 L 90.939,58.9156 z"
         id="path40"
         style="fill:#1f1a17;fill-rule:nonzero" />
      <path
         d="M 91.6862,59.1834 L 92.018,59.2325 C 92.0316,59.3347 92.0704,59.4091 92.1331,59.4563 C 92.2178,59.519 92.3336,59.5507 92.4798,59.5507 C 92.6382,59.5507 92.7598,59.519 92.8458,59.4563 C 92.9319,59.3929 92.9894,59.3043 93.0198,59.1911 C 93.0379,59.1213 93.0457,58.9758 93.0444,58.7533 C 92.8956,58.9285 92.71,59.0165 92.4875,59.0165 C 92.2107,59.0165 91.9966,58.9169 91.8453,58.717 C 91.6939,58.5178 91.6176,58.2779 91.6176,57.9991 C 91.6176,57.807 91.6526,57.6298 91.7218,57.4675 C 91.7916,57.3052 91.8925,57.1797 92.0244,57.0911 C 92.1564,57.0031 92.3116,56.9585 92.4895,56.9585 C 92.7268,56.9585 92.9228,57.0549 93.0767,57.2469 L 93.0767,57.0044 L 93.3917,57.0044 L 93.3917,58.7436 C 93.3917,59.0566 93.3594,59.2791 93.296,59.4097 C 93.232,59.5404 93.1311,59.6439 92.9927,59.7195 C 92.8542,59.7952 92.6841,59.8334 92.4817,59.8334 C 92.2418,59.8334 92.0477,59.779 91.9003,59.671 C 91.7522,59.563 91.681,59.4007 91.6862,59.1834 L 91.6862,59.1834 z M 91.9682,57.9746 C 91.9682,58.2384 92.0206,58.4312 92.126,58.5521 C 92.2308,58.6737 92.3621,58.7339 92.5199,58.7339 C 92.6764,58.7339 92.8077,58.6737 92.9137,58.5534 C 93.0198,58.4325 93.0729,58.2436 93.0729,57.9856 C 93.0729,57.7391 93.0185,57.5535 92.9092,57.4287 C 92.7999,57.3039 92.668,57.2411 92.514,57.2411 C 92.3627,57.2411 92.234,57.3026 92.1273,57.4261 C 92.0212,57.549 91.9682,57.732 91.9682,57.9746 L 91.9682,57.9746 z"
         id="path42"
         style="fill:#1f1a17;fill-rule:nonzero" />
      <polygon
         points="82.2778,64.162 82.2778,61.1317 84.4686,61.1317 84.4686,61.4894 82.6786,61.4894 82.6786,62.4172 84.355,62.4172 84.355,62.7728 82.6786,62.7728 82.6786,63.8043 84.5391,63.8043 84.5391,64.162 82.2778,64.162 "
         id="polygon44"
         style="fill:#1f1a17;fill-rule:nonzero" />
      <polygon
         points="85.0372,64.162 85.0372,61.1317 85.4091,61.1317 85.4091,64.162 85.0372,64.162 "
         id="polygon46"
         style="fill:#1f1a17;fill-rule:nonzero" />
      <path
         d="M 85.9876,61.5599 L 85.9876,61.1317 L 86.3601,61.1317 L 86.3601,61.5599 L 85.9876,61.5599 z M 85.9876,64.162 L 85.9876,61.967 L 86.3601,61.967 L 86.3601,64.162 L 85.9876,64.162 z"
         id="path48"
         style="fill:#1f1a17;fill-rule:nonzero" />
      <path
         d="M 86.9267,65.003 L 86.9267,61.967 L 87.2654,61.967 L 87.2654,62.2521 C 87.3451,62.1406 87.4354,62.0566 87.5363,62.0009 C 87.6365,61.9452 87.7585,61.9169 87.9018,61.9169 C 88.0894,61.9169 88.2545,61.9656 88.3978,62.0616 C 88.5417,62.1582 88.6497,62.2944 88.7223,62.4701 C 88.7957,62.6458 88.8324,62.8384 88.8324,63.0479 C 88.8324,63.2723 88.7922,63.4748 88.711,63.6547 C 88.6306,63.8346 88.5135,63.9722 88.3597,64.0682 C 88.2059,64.1634 88.0443,64.2114 87.875,64.2114 C 87.7508,64.2114 87.64,64.1853 87.5412,64.1331 C 87.4425,64.0809 87.362,64.0145 87.2985,63.9348 L 87.2985,65.003 L 86.9267,65.003 L 86.9267,65.003 z M 87.2632,63.0769 C 87.2632,63.3591 87.3204,63.5679 87.4347,63.7034 C 87.549,63.8382 87.688,63.9059 87.8503,63.9059 C 88.0154,63.9059 88.1572,63.836 88.275,63.6956 C 88.3928,63.5559 88.4521,63.3393 88.4521,63.0458 C 88.4521,62.7657 88.3942,62.5569 88.2792,62.4172 C 88.1642,62.2782 88.0267,62.2083 87.8672,62.2083 C 87.7084,62.2083 87.568,62.2824 87.446,62.4306 C 87.3239,62.5787 87.2632,62.7946 87.2632,63.0769 L 87.2632,63.0769 z"
         id="path50"
         style="fill:#1f1a17;fill-rule:nonzero" />
      <path
         d="M 89.1322,63.5065 L 89.4998,63.4487 C 89.5203,63.5961 89.5781,63.709 89.6727,63.7881 C 89.7665,63.8664 89.8985,63.9059 90.0685,63.9059 C 90.2392,63.9059 90.3662,63.8706 90.4488,63.8015 C 90.5313,63.7316 90.573,63.6498 90.573,63.5566 C 90.573,63.472 90.5363,63.4064 90.4629,63.3577 C 90.4121,63.3245 90.2851,63.2829 90.0826,63.2321 C 89.8103,63.1629 89.6205,63.1037 89.5153,63.0529 C 89.4102,63.0028 89.3298,62.9329 89.2755,62.844 C 89.2211,62.7551 89.1936,62.6571 89.1936,62.5498 C 89.1936,62.4517 89.2162,62.3614 89.2613,62.2782 C 89.3058,62.1942 89.3672,62.1251 89.4441,62.07 C 89.5019,62.0277 89.581,61.991 89.6804,61.9614 C 89.7806,61.9318 89.8879,61.9169 90.0022,61.9169 C 90.1743,61.9169 90.3253,61.9423 90.4558,61.9917 C 90.5864,62.0411 90.6823,62.1081 90.7444,62.1928 C 90.8065,62.2782 90.8488,62.3911 90.8721,62.5329 L 90.5088,62.583 C 90.4918,62.4701 90.4438,62.3819 90.3648,62.3184 C 90.2858,62.2549 90.1736,62.2231 90.029,62.2231 C 89.8582,62.2231 89.7362,62.2514 89.6635,62.3078 C 89.5901,62.3643 89.5534,62.4306 89.5534,62.5061 C 89.5534,62.5548 89.569,62.5978 89.5993,62.6366 C 89.6296,62.6768 89.6769,62.7093 89.7418,62.7361 C 89.7792,62.7495 89.8886,62.7812 90.0706,62.8306 C 90.3338,62.9012 90.5172,62.9583 90.6209,63.0035 C 90.7254,63.0479 90.8072,63.1136 90.8665,63.1989 C 90.9257,63.2843 90.9554,63.3901 90.9554,63.5171 C 90.9554,63.6413 90.9187,63.7577 90.8467,63.8678 C 90.774,63.9771 90.6696,64.0618 90.5334,64.1218 C 90.3973,64.1818 90.2428,64.2114 90.0706,64.2114 C 89.7849,64.2114 89.5676,64.1521 89.418,64.0336 C 89.2684,63.9151 89.1731,63.7394 89.1322,63.5065 L 89.1322,63.5065 z"
         id="path52"
         style="fill:#1f1a17;fill-rule:nonzero" />
      <path
         d="M 92.8301,63.8911 C 92.6918,64.0082 92.5591,64.0907 92.4321,64.1394 C 92.3044,64.1874 92.1676,64.2114 92.0215,64.2114 C 91.7802,64.2114 91.5954,64.1528 91.4655,64.035 C 91.3364,63.9172 91.2715,63.7662 91.2715,63.5834 C 91.2715,63.4755 91.2955,63.3774 91.3449,63.2885 C 91.3936,63.1996 91.4578,63.1284 91.5368,63.0747 C 91.6165,63.0211 91.7054,62.9802 91.8049,62.9527 C 91.8776,62.9336 91.9876,62.9146 92.1351,62.8969 C 92.4357,62.861 92.6572,62.8186 92.799,62.7685 C 92.8004,62.7177 92.8011,62.6853 92.8011,62.6719 C 92.8011,62.5202 92.7659,62.4129 92.6953,62.3516 C 92.6008,62.2669 92.4589,62.2253 92.272,62.2253 C 92.097,62.2253 91.9679,62.2556 91.8839,62.317 C 91.8007,62.3784 91.7393,62.487 91.6991,62.643 L 91.3357,62.5929 C 91.3689,62.4376 91.4232,62.3113 91.4987,62.2161 C 91.5742,62.1201 91.6843,62.0461 91.8275,61.9946 C 91.9707,61.943 92.1365,61.9169 92.3256,61.9169 C 92.5133,61.9169 92.665,61.9395 92.7821,61.9833 C 92.8992,62.0277 92.9853,62.0827 93.041,62.1498 C 93.0961,62.2168 93.1342,62.3008 93.1567,62.4031 C 93.1687,62.4666 93.1751,62.5809 93.1751,62.746 L 93.1751,63.242 C 93.1751,63.5884 93.1828,63.8071 93.1991,63.8981 C 93.2146,63.9898 93.2463,64.078 93.2929,64.162 L 92.9041,64.162 C 92.866,64.0851 92.8406,63.9948 92.8301,63.8911 L 92.8301,63.8911 z M 92.799,63.0599 C 92.6636,63.1157 92.4611,63.1622 92.1915,63.201 C 92.0384,63.2229 91.9298,63.2476 91.867,63.2751 C 91.8035,63.3026 91.7541,63.3429 91.7202,63.3965 C 91.6857,63.4494 91.668,63.508 91.668,63.5729 C 91.668,63.6723 91.7061,63.7549 91.7809,63.8212 C 91.8557,63.8868 91.9658,63.92 92.1104,63.92 C 92.2536,63.92 92.3813,63.889 92.4928,63.8262 C 92.6043,63.7634 92.6868,63.6773 92.739,63.5686 C 92.7793,63.4847 92.799,63.3605 92.799,63.1968 L 92.799,63.0599 L 92.799,63.0599 z"
         id="path54"
         style="fill:#1f1a17;fill-rule:nonzero" />
      <path
         d="M 90.5269,72.294 L 90.5269,69.2637 L 91.6699,69.2637 C 91.8709,69.2637 92.0248,69.2735 92.1306,69.2926 C 92.2795,69.3173 92.4043,69.3646 92.5052,69.4344 C 92.6054,69.5035 92.6866,69.6016 92.7479,69.7265 C 92.8093,69.8521 92.8397,69.9897 92.8397,70.14 C 92.8397,70.3975 92.7578,70.6162 92.5941,70.7947 C 92.4297,70.9725 92.1334,71.0621 91.7051,71.0621 L 90.9276,71.0621 L 90.9276,72.294 L 90.5269,72.294 L 90.5269,72.294 z M 90.9276,70.7044 L 91.7115,70.7044 C 91.9704,70.7044 92.1546,70.6564 92.2632,70.5598 C 92.3719,70.4631 92.4262,70.3276 92.4262,70.1527 C 92.4262,70.0257 92.3945,69.917 92.3303,69.8267 C 92.2661,69.7364 92.1821,69.6771 92.077,69.6482 C 92.0092,69.6305 91.8851,69.6214 91.703,69.6214 L 90.9276,69.6214 L 90.9276,70.7044 L 90.9276,70.7044 z"
         id="path56"
         style="fill:#1f1a17;fill-rule:nonzero" />
      <path
         d="M 94.7355,72.0231 C 94.5972,72.1402 94.4645,72.2227 94.3375,72.2714 C 94.2098,72.3194 94.073,72.3434 93.9269,72.3434 C 93.6856,72.3434 93.5008,72.2848 93.3709,72.167 C 93.2418,72.0492 93.1769,71.8982 93.1769,71.7154 C 93.1769,71.6075 93.2009,71.5094 93.2503,71.4205 C 93.299,71.3316 93.3632,71.2604 93.4422,71.2067 C 93.5219,71.1531 93.6108,71.1122 93.7103,71.0847 C 93.783,71.0656 93.893,71.0466 94.0405,71.0289 C 94.3411,70.993 94.5626,70.9506 94.7044,70.9005 C 94.7058,70.8497 94.7065,70.8173 94.7065,70.8039 C 94.7065,70.6522 94.6713,70.5449 94.6007,70.4836 C 94.5062,70.3989 94.3643,70.3573 94.1774,70.3573 C 94.0024,70.3573 93.8733,70.3876 93.7893,70.449 C 93.7061,70.5104 93.6447,70.619 93.6045,70.775 L 93.2411,70.7249 C 93.2743,70.5696 93.3286,70.4433 93.4041,70.3481 C 93.4796,70.2521 93.5897,70.1781 93.7329,70.1266 C 93.8761,70.075 94.0419,70.0489 94.231,70.0489 C 94.4187,70.0489 94.5704,70.0715 94.6875,70.1153 C 94.8046,70.1597 94.8907,70.2147 94.9464,70.2818 C 95.0015,70.3488 95.0396,70.4328 95.0621,70.5351 C 95.0741,70.5986 95.0805,70.7129 95.0805,70.878 L 95.0805,71.374 C 95.0805,71.7204 95.0882,71.9391 95.1045,72.0301 C 95.12,72.1218 95.1517,72.21 95.1983,72.294 L 94.8095,72.294 C 94.7714,72.2171 94.746,72.1268 94.7355,72.0231 L 94.7355,72.0231 z M 94.7044,71.1919 C 94.569,71.2477 94.3665,71.2942 94.0969,71.333 C 93.9438,71.3549 93.8352,71.3796 93.7724,71.4071 C 93.7089,71.4346 93.6595,71.4749 93.6256,71.5285 C 93.5911,71.5814 93.5734,71.64 93.5734,71.7049 C 93.5734,71.8043 93.6115,71.8869 93.6863,71.9532 C 93.7611,72.0188 93.8712,72.052 94.0158,72.052 C 94.159,72.052 94.2867,72.021 94.3982,71.9582 C 94.5097,71.8954 94.5922,71.8093 94.6444,71.7006 C 94.6847,71.6167 94.7044,71.4925 94.7044,71.3288 L 94.7044,71.1919 z"
         id="path58"
         style="fill:#1f1a17;fill-rule:nonzero" />
      <path
         d="M 95.6534,72.294 L 95.6534,70.099 L 95.9878,70.099 L 95.9878,70.4313 C 96.0732,70.2761 96.1522,70.1731 96.2249,70.1237 C 96.2968,70.0743 96.3766,70.0489 96.4633,70.0489 C 96.5889,70.0489 96.7159,70.0892 96.8457,70.1689 L 96.7173,70.5146 C 96.627,70.4603 96.536,70.4335 96.445,70.4335 C 96.3631,70.4335 96.2905,70.4582 96.2256,70.5068 C 96.1607,70.5562 96.1148,70.624 96.0873,70.7107 C 96.0457,70.8427 96.0252,70.9873 96.0252,71.1447 L 96.0252,72.294 L 95.6534,72.294 L 95.6534,72.294 z"
         id="path60"
         style="fill:#1f1a17;fill-rule:nonzero" />
      <path
         d="M 98.4996,72.0231 C 98.3613,72.1402 98.2286,72.2227 98.1016,72.2714 C 97.9739,72.3194 97.8371,72.3434 97.691,72.3434 C 97.4497,72.3434 97.2649,72.2848 97.135,72.167 C 97.0059,72.0492 96.941,71.8982 96.941,71.7154 C 96.941,71.6075 96.965,71.5094 97.0144,71.4205 C 97.0631,71.3316 97.1273,71.2604 97.2063,71.2067 C 97.286,71.1531 97.3749,71.1122 97.4744,71.0847 C 97.5471,71.0656 97.6571,71.0466 97.8046,71.0289 C 98.1052,70.993 98.3267,70.9506 98.4685,70.9005 C 98.4699,70.8497 98.4706,70.8173 98.4706,70.8039 C 98.4706,70.6522 98.4354,70.5449 98.3648,70.4836 C 98.2703,70.3989 98.1284,70.3573 97.9415,70.3573 C 97.7665,70.3573 97.6374,70.3876 97.5534,70.449 C 97.4702,70.5104 97.4088,70.619 97.3686,70.775 L 97.0052,70.7249 C 97.0384,70.5696 97.0927,70.4433 97.1682,70.3481 C 97.2437,70.2521 97.3538,70.1781 97.497,70.1266 C 97.6402,70.075 97.806,70.0489 97.9951,70.0489 C 98.1828,70.0489 98.3345,70.0715 98.4516,70.1153 C 98.5687,70.1597 98.6548,70.2147 98.7105,70.2818 C 98.7656,70.3488 98.8037,70.4328 98.8262,70.5351 C 98.8382,70.5986 98.8446,70.7129 98.8446,70.878 L 98.8446,71.374 C 98.8446,71.7204 98.8523,71.9391 98.8686,72.0301 C 98.8841,72.1218 98.9158,72.21 98.9624,72.294 L 98.5736,72.294 C 98.5355,72.2171 98.5101,72.1268 98.4996,72.0231 L 98.4996,72.0231 z M 98.4685,71.1919 C 98.3331,71.2477 98.1306,71.2942 97.861,71.333 C 97.7079,71.3549 97.5993,71.3796 97.5365,71.4071 C 97.473,71.4346 97.4236,71.4749 97.3897,71.5285 C 97.3552,71.5814 97.3375,71.64 97.3375,71.7049 C 97.3375,71.8043 97.3756,71.8869 97.4504,71.9532 C 97.5252,72.0188 97.6353,72.052 97.7799,72.052 C 97.9231,72.052 98.0508,72.021 98.1623,71.9582 C 98.2738,71.8954 98.3563,71.8093 98.4085,71.7006 C 98.4488,71.6167 98.4685,71.4925 98.4685,71.3288 L 98.4685,71.1919 z"
         id="path62"
         style="fill:#1f1a17;fill-rule:nonzero" />
      <path
         d="M 99.7646,72.294 L 99.4196,72.294 L 99.4196,69.2637 L 99.7914,69.2637 L 99.7914,70.3446 C 99.9487,70.1477 100.1491,70.0489 100.3925,70.0489 C 100.528,70.0489 100.6557,70.0765 100.7764,70.1308 C 100.897,70.1851 100.9958,70.262 101.0741,70.3601 C 101.1517,70.4589 101.2131,70.5774 101.2568,70.7171 C 101.3013,70.8561 101.3232,71.005 101.3232,71.163 C 101.3232,71.5398 101.23,71.8305 101.0438,72.0358 C 100.8582,72.2411 100.6345,72.3434 100.3742,72.3434 C 100.1153,72.3434 99.9121,72.2354 99.7646,72.0188 L 99.7646,72.294 L 99.7646,72.294 z M 99.7604,71.1799 C 99.7604,71.4431 99.7963,71.6329 99.8676,71.75 C 99.9847,71.9419 100.1435,72.0379 100.3431,72.0379 C 100.5061,72.0379 100.6465,71.9673 100.7651,71.8255 C 100.8836,71.6844 100.9429,71.4742 100.9429,71.194 C 100.9429,70.9076 100.8857,70.6959 100.7721,70.5598 C 100.6585,70.4236 100.5209,70.3551 100.3601,70.3551 C 100.1971,70.3551 100.0567,70.4257 99.9382,70.5668 C 99.8196,70.7079 99.7604,70.9125 99.7604,71.1799 L 99.7604,71.1799 z"
         id="path64"
         style="fill:#1f1a17;fill-rule:nonzero" />
      <path
         d="M 101.637,71.1962 C 101.637,70.7898 101.7499,70.4885 101.9764,70.2931 C 102.1648,70.1308 102.3948,70.0489 102.6664,70.0489 C 102.9684,70.0489 103.2153,70.1477 103.4065,70.346 C 103.5984,70.5435 103.6937,70.8166 103.6937,71.1651 C 103.6937,71.448 103.6513,71.6703 103.5667,71.8319 C 103.482,71.9941 103.3585,72.1197 103.197,72.2093 C 103.0347,72.2989 102.8583,72.3434 102.6664,72.3434 C 102.3595,72.3434 102.1111,72.2453 101.9213,72.0478 C 101.7315,71.8509 101.637,71.5673 101.637,71.1962 z M 102.0194,71.1962 C 102.0194,71.4777 102.0808,71.6879 102.2036,71.8276 C 102.3263,71.968 102.4808,72.0379 102.6664,72.0379 C 102.8513,72.0379 103.0051,71.9673 103.1278,71.8269 C 103.2499,71.6865 103.3113,71.472 103.3113,71.1842 C 103.3113,70.9125 103.2499,70.7065 103.1264,70.5668 C 103.0029,70.4271 102.8498,70.3573 102.6664,70.3573 C 102.4808,70.3573 102.3263,70.4271 102.2036,70.5661 C 102.0808,70.7051 102.0194,70.9154 102.0194,71.1962 L 102.0194,71.1962 z"
         id="path66"
         style="fill:#1f1a17;fill-rule:nonzero" />
      <polygon
         points="104.122,72.294 104.122,69.2637 104.494,69.2637 104.494,72.294 104.122,72.294 "
         id="polygon68"
         style="fill:#1f1a17;fill-rule:nonzero" />
      <path
         d="M 106.503,72.0231 C 106.3647,72.1402 106.232,72.2227 106.105,72.2714 C 105.9773,72.3194 105.8405,72.3434 105.6944,72.3434 C 105.4531,72.3434 105.2683,72.2848 105.1384,72.167 C 105.0093,72.0492 104.9444,71.8982 104.9444,71.7154 C 104.9444,71.6075 104.9684,71.5094 105.0178,71.4205 C 105.0665,71.3316 105.1307,71.2604 105.2097,71.2067 C 105.2894,71.1531 105.3783,71.1122 105.4778,71.0847 C 105.5505,71.0656 105.6605,71.0466 105.808,71.0289 C 106.1086,70.993 106.3301,70.9506 106.4719,70.9005 C 106.4733,70.8497 106.474,70.8173 106.474,70.8039 C 106.474,70.6522 106.4388,70.5449 106.3682,70.4836 C 106.2737,70.3989 106.1318,70.3573 105.9449,70.3573 C 105.7699,70.3573 105.6408,70.3876 105.5568,70.449 C 105.4736,70.5104 105.4122,70.619 105.372,70.775 L 105.0086,70.7249 C 105.0418,70.5696 105.0961,70.4433 105.1716,70.3481 C 105.2471,70.2521 105.3572,70.1781 105.5004,70.1266 C 105.6436,70.075 105.8094,70.0489 105.9985,70.0489 C 106.1862,70.0489 106.3379,70.0715 106.455,70.1153 C 106.5721,70.1597 106.6582,70.2147 106.7139,70.2818 C 106.769,70.3488 106.8071,70.4328 106.8296,70.5351 C 106.8416,70.5986 106.848,70.7129 106.848,70.878 L 106.848,71.374 C 106.848,71.7204 106.8557,71.9391 106.872,72.0301 C 106.8875,72.1218 106.9192,72.21 106.9658,72.294 L 106.577,72.294 C 106.5389,72.2171 106.5135,72.1268 106.503,72.0231 L 106.503,72.0231 z M 106.4719,71.1919 C 106.3365,71.2477 106.134,71.2942 105.8644,71.333 C 105.7113,71.3549 105.6027,71.3796 105.5399,71.4071 C 105.4764,71.4346 105.427,71.4749 105.3931,71.5285 C 105.3586,71.5814 105.3409,71.64 105.3409,71.7049 C 105.3409,71.8043 105.379,71.8869 105.4538,71.9532 C 105.5286,72.0188 105.6387,72.052 105.7833,72.052 C 105.9265,72.052 106.0542,72.021 106.1657,71.9582 C 106.2772,71.8954 106.3597,71.8093 106.4119,71.7006 C 106.4522,71.6167 106.4719,71.4925 106.4719,71.3288 L 106.4719,71.1919 z"
         id="path70"
         style="fill:#1f1a17;fill-rule:nonzero" />
      <polygon
         points="93.6871,81.0668 93.6871,78.0365 94.0885,78.0365 94.0885,79.2811 95.6633,79.2811 95.6633,78.0365 96.0648,78.0365 96.0648,81.0668 95.6633,81.0668 95.6633,79.6388 94.0885,79.6388 94.0885,81.0668 93.6871,81.0668 "
         id="polygon72"
         style="fill:#1f1a17;fill-rule:nonzero" />
      <path
         d="M 96.6863,78.4647 L 96.6863,78.0365 L 97.0588,78.0365 L 97.0588,78.4647 L 96.6863,78.4647 z M 96.6863,81.0668 L 96.6863,78.8718 L 97.0588,78.8718 L 97.0588,81.0668 L 96.6863,81.0668 z"
         id="path74"
         style="fill:#1f1a17;fill-rule:nonzero" />
      <path
         d="M 97.6254,81.9078 L 97.6254,78.8718 L 97.9641,78.8718 L 97.9641,79.1569 C 98.0438,79.0454 98.1341,78.9614 98.235,78.9057 C 98.3352,78.85 98.4572,78.8217 98.6005,78.8217 C 98.7881,78.8217 98.9532,78.8704 99.0965,78.9664 C 99.2404,79.063 99.3484,79.1992 99.421,79.3749 C 99.4944,79.5506 99.5311,79.7432 99.5311,79.9527 C 99.5311,80.1771 99.4909,80.3796 99.4097,80.5595 C 99.3293,80.7394 99.2122,80.877 99.0584,80.973 C 98.9046,81.0682 98.743,81.1162 98.5737,81.1162 C 98.4495,81.1162 98.3387,81.0901 98.2399,81.0379 C 98.1412,80.9857 98.0607,80.9193 97.9972,80.8396 L 97.9972,81.9078 L 97.6254,81.9078 L 97.6254,81.9078 z M 97.9619,79.9817 C 97.9619,80.2639 98.0191,80.4727 98.1334,80.6082 C 98.2477,80.743 98.3867,80.8107 98.549,80.8107 C 98.7141,80.8107 98.8559,80.7408 98.9737,80.6004 C 99.0915,80.4607 99.1508,80.2441 99.1508,79.9506 C 99.1508,79.6705 99.0929,79.4617 98.9779,79.322 C 98.8629,79.183 98.7254,79.1131 98.5659,79.1131 C 98.4071,79.1131 98.2667,79.1872 98.1447,79.3354 C 98.0226,79.4835 97.9619,79.6994 97.9619,79.9817 L 97.9619,79.9817 z"
         id="path76"
         style="fill:#1f1a17;fill-rule:nonzero" />
      <path
         d="M 101.482,80.3598 L 101.8665,80.4071 C 101.8059,80.6322 101.6937,80.8065 101.53,80.9306 C 101.3656,81.0541 101.156,81.1162 100.9013,81.1162 C 100.5803,81.1162 100.3256,81.0174 100.1379,80.8199 C 99.9496,80.6223 99.8557,80.345 99.8557,79.988 C 99.8557,79.6183 99.951,79.3319 100.1408,79.1279 C 100.3313,78.924 100.5775,78.8217 100.8809,78.8217 C 101.1744,78.8217 101.4143,78.9219 101.5998,79.1216 C 101.7861,79.3213 101.8792,79.6028 101.8792,79.9647 C 101.8792,79.9873 101.8785,80.0205 101.8771,80.0642 L 100.2402,80.0642 C 100.2537,80.3055 100.3221,80.4904 100.4449,80.6181 C 100.5676,80.7465 100.72,80.8107 100.9035,80.8107 C 101.0396,80.8107 101.156,80.7747 101.2527,80.7027 C 101.3494,80.6315 101.4256,80.5172 101.482,80.3598 L 101.482,80.3598 z M 100.2607,79.758 L 101.4862,79.758 C 101.47,79.5739 101.4227,79.4349 101.3458,79.3431 C 101.2273,79.1999 101.0735,79.1279 100.8851,79.1279 C 100.7144,79.1279 100.5704,79.1851 100.454,79.2994 C 100.3376,79.4137 100.2734,79.5668 100.2607,79.758 z"
         id="path78"
         style="fill:#1f1a17;fill-rule:nonzero" />
      <path
         d="M 102.33,81.0668 L 102.33,78.8718 L 102.6644,78.8718 L 102.6644,79.2041 C 102.7498,79.0489 102.8288,78.9459 102.9015,78.8965 C 102.9734,78.8471 103.0532,78.8217 103.1399,78.8217 C 103.2655,78.8217 103.3925,78.862 103.5223,78.9417 L 103.3939,79.2874 C 103.3036,79.2331 103.2126,79.2063 103.1216,79.2063 C 103.0397,79.2063 102.9671,79.231 102.9022,79.2796 C 102.8373,79.329 102.7914,79.3968 102.7639,79.4835 C 102.7223,79.6155 102.7018,79.7601 102.7018,79.9175 L 102.7018,81.0668 L 102.33,81.0668 L 102.33,81.0668 z"
         id="path80"
         style="fill:#1f1a17;fill-rule:nonzero" />
      <path
         d="M 104.087,81.0668 L 103.742,81.0668 L 103.742,78.0365 L 104.1138,78.0365 L 104.1138,79.1174 C 104.2711,78.9205 104.4715,78.8217 104.7149,78.8217 C 104.8504,78.8217 104.9781,78.8493 105.0988,78.9036 C 105.2194,78.9579 105.3182,79.0348 105.3965,79.1329 C 105.4741,79.2317 105.5355,79.3502 105.5792,79.4899 C 105.6237,79.6289 105.6456,79.7778 105.6456,79.9358 C 105.6456,80.3126 105.5524,80.6033 105.3662,80.8086 C 105.1806,81.0139 104.9569,81.1162 104.6966,81.1162 C 104.4377,81.1162 104.2345,81.0082 104.087,80.7916 L 104.087,81.0668 L 104.087,81.0668 z M 104.0828,79.9527 C 104.0828,80.2159 104.1187,80.4057 104.19,80.5228 C 104.3071,80.7147 104.4659,80.8107 104.6655,80.8107 C 104.8285,80.8107 104.9689,80.7401 105.0875,80.5983 C 105.206,80.4572 105.2653,80.247 105.2653,79.9668 C 105.2653,79.6804 105.2081,79.4687 105.0945,79.3326 C 104.9809,79.1964 104.8433,79.1279 104.6825,79.1279 C 104.5195,79.1279 104.3791,79.1985 104.2606,79.3396 C 104.142,79.4807 104.0828,79.6853 104.0828,79.9527 L 104.0828,79.9527 z"
         id="path82"
         style="fill:#1f1a17;fill-rule:nonzero" />
      <path
         d="M 105.959,79.969 C 105.959,79.5626 106.0719,79.2613 106.2984,79.0659 C 106.4868,78.9036 106.7168,78.8217 106.9884,78.8217 C 107.2904,78.8217 107.5373,78.9205 107.7285,79.1188 C 107.9204,79.3163 108.0157,79.5894 108.0157,79.9379 C 108.0157,80.2208 107.9733,80.4431 107.8887,80.6047 C 107.804,80.7669 107.6805,80.8925 107.519,80.9821 C 107.3567,81.0717 107.1803,81.1162 106.9884,81.1162 C 106.6815,81.1162 106.4331,81.0181 106.2433,80.8206 C 106.0535,80.6237 105.959,80.3401 105.959,79.969 z M 106.3414,79.969 C 106.3414,80.2505 106.4028,80.4607 106.5256,80.6004 C 106.6483,80.7408 106.8028,80.8107 106.9884,80.8107 C 107.1733,80.8107 107.3271,80.7401 107.4498,80.5997 C 107.5719,80.4593 107.6333,80.2448 107.6333,79.957 C 107.6333,79.6853 107.5719,79.4793 107.4484,79.3396 C 107.3249,79.1999 107.1718,79.1301 106.9884,79.1301 C 106.8028,79.1301 106.6483,79.1999 106.5256,79.3389 C 106.4028,79.4779 106.3414,79.6882 106.3414,79.969 L 106.3414,79.969 z"
         id="path84"
         style="fill:#1f1a17;fill-rule:nonzero" />
      <polygon
         points="108.444,81.0668 108.444,78.0365 108.816,78.0365 108.816,81.0668 108.444,81.0668 "
         id="polygon86"
         style="fill:#1f1a17;fill-rule:nonzero" />
      <path
         d="M 110.826,80.7959 C 110.6877,80.913 110.555,80.9955 110.428,81.0442 C 110.3003,81.0922 110.1635,81.1162 110.0174,81.1162 C 109.7761,81.1162 109.5913,81.0576 109.4614,80.9398 C 109.3323,80.822 109.2674,80.671 109.2674,80.4882 C 109.2674,80.3803 109.2914,80.2822 109.3408,80.1933 C 109.3895,80.1044 109.4537,80.0332 109.5327,79.9795 C 109.6124,79.9259 109.7013,79.885 109.8008,79.8575 C 109.8735,79.8384 109.9835,79.8194 110.131,79.8017 C 110.4316,79.7658 110.6531,79.7234 110.7949,79.6733 C 110.7963,79.6225 110.797,79.5901 110.797,79.5767 C 110.797,79.425 110.7618,79.3177 110.6912,79.2564 C 110.5967,79.1717 110.4548,79.1301 110.2679,79.1301 C 110.0929,79.1301 109.9638,79.1604 109.8798,79.2218 C 109.7966,79.2832 109.7352,79.3918 109.695,79.5478 L 109.3316,79.4977 C 109.3648,79.3424 109.4191,79.2161 109.4946,79.1209 C 109.5701,79.0249 109.6802,78.9509 109.8234,78.8994 C 109.9666,78.8478 110.1324,78.8217 110.3215,78.8217 C 110.5092,78.8217 110.6609,78.8443 110.778,78.8881 C 110.8951,78.9325 110.9812,78.9875 111.0369,79.0546 C 111.092,79.1216 111.1301,79.2056 111.1526,79.3079 C 111.1646,79.3714 111.171,79.4857 111.171,79.6508 L 111.171,80.1468 C 111.171,80.4932 111.1787,80.7119 111.195,80.8029 C 111.2105,80.8946 111.2422,80.9828 111.2888,81.0668 L 110.9,81.0668 C 110.8619,80.9899 110.8365,80.8996 110.826,80.7959 L 110.826,80.7959 z M 110.7949,79.9647 C 110.6595,80.0205 110.457,80.067 110.1874,80.1058 C 110.0343,80.1277 109.9257,80.1524 109.8629,80.1799 C 109.7994,80.2074 109.75,80.2477 109.7161,80.3013 C 109.6816,80.3542 109.6639,80.4128 109.6639,80.4777 C 109.6639,80.5771 109.702,80.6597 109.7768,80.726 C 109.8516,80.7916 109.9617,80.8248 110.1063,80.8248 C 110.2495,80.8248 110.3772,80.7938 110.4887,80.731 C 110.6002,80.6682 110.6827,80.5821 110.7349,80.4734 C 110.7752,80.3895 110.7949,80.2653 110.7949,80.1016 L 110.7949,79.9647 z"
         id="path88"
         style="fill:#1f1a17;fill-rule:nonzero" />
    </g>
  </g>
</svg>
